<svg id="Wordmark" xmlns="http://www.w3.org/2000/svg" viewBox="0 0 1155.69 301.11"><defs><style>.cls-1{fill:#292c31;}</style></defs><title>Wordmark – Brand Colour</title><path class="cls-1" d="M1053.77,160.06v-21a.57.57,0,0,0-.57-.57h-42.86a.6.6,0,0,1-.6-.6h0V111.72a.6.6,0,0,0-.6-.6H988.32a.6.6,0,0,0-.6.6h0v75.84a.6.6,0,0,0,.6.6h20.82a.6.6,0,0,0,.6-.6h0V161.11a.57.57,0,0,1,.54-.6h42.92A.57.57,0,0,0,1053.77,160.06Z"/><rect class="cls-1" x="1009.74" y="90.93" width="55.02" height="20.19" rx="0.6" ry="0.6"/><rect class="cls-1" x="1009.74" y="188.16" width="55.02" height="22.02" rx="0.6" ry="0.6"/><path class="cls-1" d="M976.78,210.14a.6.6,0,0,0,.54-.87l-24.7-49a.57.57,0,0,1,.24-.77l.09,0c11.61-4.62,18.3-17.67,18.3-30.93,0-31.74-24.3-37.65-34.26-37.65H888.15a.6.6,0,0,0-.6.6h0v118a.6.6,0,0,0,.6.6h20.49a.6.6,0,0,0,.6-.6h0V167.4a.6.6,0,0,1,.6-.6h20.61a.6.6,0,0,1,.54.33l21.18,42.68a.6.6,0,0,0,.54.33Zm-47.2-65H909.81a.6.6,0,0,1-.6-.6h0V113.19a.6.6,0,0,1,.6-.6h23.43c12.6,0,16.08,9.78,16.08,16.62C949.35,140,941.64,145.11,929.58,145.11Z"/><path class="cls-1" d="M814,88.67l-36,11.71a.6.6,0,0,0-.3.22l-22.27,30.66a.6.6,0,0,0-.11.35V169.5a.6.6,0,0,0,.11.35l22.27,30.66a.6.6,0,0,0,.3.22l36,11.71a.6.6,0,0,0,.37,0l36-11.71a.6.6,0,0,0,.3-.22L873,169.85a.6.6,0,0,0,.11-.35V131.61a.6.6,0,0,0-.11-.35L850.7,100.6a.6.6,0,0,0-.3-.22l-36-11.71A.6.6,0,0,0,814,88.67Zm38.11,74.4-14.3,19.68a.6.6,0,0,1-.3.22l-23.14,7.52a.6.6,0,0,1-.37,0L790.85,183a.6.6,0,0,1-.3-.22l-14.3-19.68a.6.6,0,0,1-.11-.35V138.39a.6.6,0,0,1,.11-.35l14.3-19.68a.6.6,0,0,1,.3-.22L814,110.62a.6.6,0,0,1,.37,0l23.14,7.52a.6.6,0,0,1,.3.22L852.1,138a.6.6,0,0,1,.11.35v24.33A.6.6,0,0,1,852.1,163.07Z"/><path class="cls-1" d="M736,175.17a.6.6,0,0,0-.84,0c-5.6,5.42-13.21,15-28.46,15-21.3,0-37.8-13.87-37.8-39.42,0-26.48,16-39.9,37.8-39.9a39.9,39.9,0,0,1,28.46,12.73.57.57,0,0,0,.8.07l.07-.07,14-15.16a.51.51,0,0,0,0-.66,61.91,61.91,0,0,0-44.51-19.17c-35.67,0-59.58,26.06-59.58,62.15,0,38.94,30.19,61.79,60.06,61.79,19.11,0,35.94-12,44.72-21.24a.51.51,0,0,0,0-.66Z"/><path class="cls-1" d="M608.49,138.65h-52a.6.6,0,0,1-.6-.6h0V91.53a.6.6,0,0,0-.6-.6H534.47a.6.6,0,0,0-.6.6h0v118a.6.6,0,0,0,.6.6h20.82a.6.6,0,0,0,.6-.6h0V161.26a.6.6,0,0,1,.6-.6h52a.6.6,0,0,1,.6.6h0v48.31a.6.6,0,0,0,.6.6H630.5a.6.6,0,0,0,.6-.6h0v-118a.6.6,0,0,0-.6-.6H609.68a.6.6,0,0,0-.6.6h0V138a.6.6,0,0,1-.57.63Z"/><path class="cls-1" d="M454.64,113.22v31.33a.6.6,0,0,0,.6.6h42.11a.6.6,0,0,1,.6.6v20.49h0a.6.6,0,0,1-.6.6H455.24a.6.6,0,0,0-.6.6v42.14h0a.6.6,0,0,1-.6.6H433.56a.6.6,0,0,1-.6-.6v-118a.6.6,0,0,1,.6-.6h63.8a.6.6,0,0,1,.6.6V112a.6.6,0,0,1-.6.6H455.24A.6.6,0,0,0,454.64,113.22ZM498,113v31.33a.6.6,0,0,0,.6.6H519a.6.6,0,0,0,.6-.6V113a.6.6,0,0,0-.6-.6H498.56A.6.6,0,0,0,498,113Z"/><path class="cls-1" d="M352.22,91.28l-36.49,78.15a.6.6,0,0,0-.06.25v39.89a.6.6,0,0,0,.6.6h20.82a.6.6,0,0,0,.6-.6V177.75a.6.6,0,0,1,.6-.6h53.84a.6.6,0,0,1,.6.6v31.82a.6.6,0,0,0,.6.6h20.82a.6.6,0,0,0,.6-.6V169.69a.6.6,0,0,0-.06-.26L377.4,91.27a.6.6,0,0,0-.54-.34H352.76A.6.6,0,0,0,352.22,91.28Zm-5.62,63L364.26,116a.6.6,0,0,1,1.09,0L383,154.29a.6.6,0,0,1-.54.85H347.14A.6.6,0,0,1,346.6,154.29Z"/><path class="cls-1" d="M294.79,152.18s.08,0,.09-.06L302.41,129a.6.6,0,0,0,0-.37l-7.49-23a.6.6,0,0,0-.22-.3l-19.93-14.2a.6.6,0,0,0-.35-.11l-58.4,0a.6.6,0,0,0-.6.6v118a.6.6,0,0,0,.6.6h18.74a.6.6,0,0,0,.6-.6V167.41a.6.6,0,0,1,.59-.6l22.52-.25a.6.6,0,0,1,.54.33l21.27,42.95a.6.6,0,0,0,.54.33h21.63a.6.6,0,0,0,.54-.87l-23.08-45.79a.6.6,0,0,1,.19-.76Zm-59.44-6.6V111a.6.6,0,0,1,.6-.6h32.15a.6.6,0,0,1,.35.11l9,6.54a.6.6,0,0,1,.22.3l3.44,10.6a.6.6,0,0,1,0,.37l-3.44,10.62a.6.6,0,0,1-.23.31l-9.72,6.83a.6.6,0,0,1-.34.11H236A.6.6,0,0,1,235.35,145.57Z"/><path class="cls-1" d="M173.63,203.83v5.74a.6.6,0,0,0,.6.6H195a.6.6,0,0,0,.6-.6V144.73a.6.6,0,0,0-.6-.6H146.71a.6.6,0,0,0-.6.6v20.81a.6.6,0,0,0,.6.6H173a.6.6,0,0,1,.6.6v11.77a.6.6,0,0,1-.29.51l-16.67,10.19a.6.6,0,0,1-.31.09H138.21a.6.6,0,0,1-.31-.09l-16.12-9.86a.6.6,0,0,1-.21-.21l-9.7-16.85a.6.6,0,0,1-.08-.3V139.11a.6.6,0,0,1,.08-.3l9.7-16.85a.6.6,0,0,1,.21-.21l16.12-9.86a.6.6,0,0,1,.31-.09H157.3a.6.6,0,0,1,.33.1l14.68,9.62a.6.6,0,0,1,.13.12l6.52,7.91a.6.6,0,0,0,.83.09l15.89-12.43a.6.6,0,0,0,.1-.84l-7.62-9.75a.6.6,0,0,0-.15-.14L163.53,91a.6.6,0,0,0-.32-.09H132.34A.6.6,0,0,0,132,91l-25.88,15.82a.6.6,0,0,0-.21.22L91,133.47a.6.6,0,0,0-.08.29v33.57a.6.6,0,0,0,.08.29L105.9,194l.12.22,26,15.9a.6.6,0,0,0,.31.09h29.89a.6.6,0,0,0,.31-.09l10.63-6.51A.3.3,0,0,1,173.63,203.83Z"/></svg>